<?xml version="1.0" encoding="UTF-8" ?>
<!DOCTYPE svg PUBLIC "-//W3C//DTD SVG 1.1//EN" "http://www.w3.org/Graphics/SVG/1.1/DTD/svg11.dtd">
<svg width="200pt" height="200pt" viewBox="0 0 200 200" version="1.1" xmlns="http://www.w3.org/2000/svg">
<g id="#6087cfff">
<path fill="#6087cf" opacity="1.00" d=" M 113.47 17.81 C 127.20 16.73 142.20 15.56 154.82 22.05 C 160.32 25.20 154.84 30.78 150.80 31.97 C 135.47 38.13 118.41 39.17 102.10 37.58 C 96.52 36.68 90.24 36.10 85.88 32.16 C 82.98 29.58 86.08 26.06 88.61 24.71 C 96.19 20.43 104.96 18.95 113.47 17.81 M 113.44 20.79 C 106.68 22.01 99.04 22.88 93.82 27.78 C 91.83 30.64 96.11 32.37 98.23 33.10 C 109.85 36.50 122.31 35.71 134.08 33.55 C 139.14 32.28 144.95 31.31 148.48 27.10 C 149.13 24.33 146.00 23.12 143.95 22.30 C 134.12 19.18 123.56 19.59 113.44 20.79 Z" />
<path fill="#6087cf" opacity="1.00" d=" M 5.88 55.15 C 25.24 48.52 45.30 40.34 66.09 43.08 C 73.30 43.64 80.36 49.00 81.76 56.28 C 86.80 71.68 89.88 89.90 104.63 99.37 C 90.32 109.25 71.09 109.77 55.55 102.51 C 34.16 93.04 17.76 74.88 5.88 55.15 Z" />
<path fill="#6087cf" opacity="1.00" d=" M 136.71 53.84 C 150.17 51.72 163.87 54.02 176.97 57.20 C 177.03 63.46 176.99 69.71 177.00 75.97 C 165.45 70.71 152.01 66.63 139.45 70.55 C 133.18 72.34 131.87 82.37 138.12 85.04 C 149.85 89.93 163.74 88.95 174.44 96.55 C 185.14 104.29 184.91 120.49 179.26 131.24 C 175.21 138.39 167.09 141.95 159.28 143.16 C 144.38 145.40 129.09 142.93 115.00 137.87 C 115.00 131.60 115.00 125.32 115.00 119.05 C 127.06 125.23 141.25 130.54 154.83 126.63 C 161.72 124.96 163.34 114.35 156.88 111.13 C 145.88 106.03 132.53 106.99 122.58 99.37 C 113.47 92.76 112.33 79.73 115.71 69.77 C 118.71 60.78 127.69 55.23 136.71 53.84 Z" />
</g>
</svg>
